<mxfile host="app.diagrams.net" modified="2022-06-02T11:53:59.895Z" agent="5.0 (Windows NT 10.0; Win64; x64) AppleWebKit/537.36 (KHTML, like Gecko) Chrome/101.0.4951.64 Safari/537.36 Edg/101.0.1210.53" etag="uvKH1wk1VXnRpQmmuMsT" version="18.1.3" type="github">
  <diagram id="K00No8PFQpgPU9eF6Gh3" name="Page-1">
    <mxGraphModel dx="920" dy="504" grid="1" gridSize="10" guides="1" tooltips="1" connect="1" arrows="1" fold="1" page="1" pageScale="1" pageWidth="827" pageHeight="1169" math="0" shadow="0">
      <root>
        <mxCell id="0" />
        <mxCell id="1" parent="0" />
        <mxCell id="Pq2s1rolhXNcvBjcGybK-1" value="" style="shape=mxgraph.cisco.switches.workgroup_switch;sketch=0;html=1;pointerEvents=1;dashed=0;fillColor=#036897;strokeColor=#ffffff;strokeWidth=2;verticalLabelPosition=bottom;verticalAlign=top;align=center;outlineConnect=0;" parent="1" vertex="1">
          <mxGeometry x="363" y="200" width="101" height="50" as="geometry" />
        </mxCell>
        <mxCell id="Pq2s1rolhXNcvBjcGybK-2" value="" style="shape=mxgraph.cisco.switches.workgroup_switch;sketch=0;html=1;pointerEvents=1;dashed=0;fillColor=#036897;strokeColor=#ffffff;strokeWidth=2;verticalLabelPosition=bottom;verticalAlign=top;align=center;outlineConnect=0;" parent="1" vertex="1">
          <mxGeometry x="543" y="410" width="101" height="50" as="geometry" />
        </mxCell>
        <mxCell id="Pq2s1rolhXNcvBjcGybK-3" value="" style="shape=mxgraph.cisco.switches.workgroup_switch;sketch=0;html=1;pointerEvents=1;dashed=0;fillColor=#036897;strokeColor=#ffffff;strokeWidth=2;verticalLabelPosition=bottom;verticalAlign=top;align=center;outlineConnect=0;" parent="1" vertex="1">
          <mxGeometry x="183" y="410" width="101" height="50" as="geometry" />
        </mxCell>
        <mxCell id="Pq2s1rolhXNcvBjcGybK-5" value="" style="shape=mxgraph.cisco.computers_and_peripherals.terminal;sketch=0;html=1;pointerEvents=1;dashed=0;fillColor=#036897;strokeColor=#ffffff;strokeWidth=2;verticalLabelPosition=bottom;verticalAlign=top;align=center;outlineConnect=0;" parent="1" vertex="1">
          <mxGeometry x="20" y="398" width="90" height="74" as="geometry" />
        </mxCell>
        <mxCell id="Pq2s1rolhXNcvBjcGybK-11" value="" style="endArrow=none;html=1;rounded=0;exitX=0.5;exitY=0;exitDx=0;exitDy=0;exitPerimeter=0;entryX=0;entryY=0.98;entryDx=0;entryDy=0;entryPerimeter=0;" parent="1" source="Pq2s1rolhXNcvBjcGybK-3" target="Pq2s1rolhXNcvBjcGybK-1" edge="1">
          <mxGeometry width="50" height="50" relative="1" as="geometry">
            <mxPoint x="270" y="390" as="sourcePoint" />
            <mxPoint x="320" y="340" as="targetPoint" />
          </mxGeometry>
        </mxCell>
        <mxCell id="Pq2s1rolhXNcvBjcGybK-13" value="" style="endArrow=none;html=1;rounded=0;exitX=0.5;exitY=0;exitDx=0;exitDy=0;exitPerimeter=0;" parent="1" source="Pq2s1rolhXNcvBjcGybK-2" target="Pq2s1rolhXNcvBjcGybK-1" edge="1">
          <mxGeometry width="50" height="50" relative="1" as="geometry">
            <mxPoint x="370" y="450" as="sourcePoint" />
            <mxPoint x="420" y="400" as="targetPoint" />
          </mxGeometry>
        </mxCell>
        <mxCell id="Pq2s1rolhXNcvBjcGybK-14" value="" style="endArrow=none;html=1;rounded=0;exitX=0.98;exitY=0.5;exitDx=0;exitDy=0;exitPerimeter=0;entryX=0;entryY=0.5;entryDx=0;entryDy=0;entryPerimeter=0;" parent="1" source="Pq2s1rolhXNcvBjcGybK-3" target="Pq2s1rolhXNcvBjcGybK-2" edge="1">
          <mxGeometry width="50" height="50" relative="1" as="geometry">
            <mxPoint x="370" y="450" as="sourcePoint" />
            <mxPoint x="420" y="400" as="targetPoint" />
          </mxGeometry>
        </mxCell>
        <mxCell id="Pq2s1rolhXNcvBjcGybK-16" value="" style="shape=mxgraph.cisco.computers_and_peripherals.terminal;sketch=0;html=1;pointerEvents=1;dashed=0;fillColor=#036897;strokeColor=#ffffff;strokeWidth=2;verticalLabelPosition=bottom;verticalAlign=top;align=center;outlineConnect=0;" parent="1" vertex="1">
          <mxGeometry x="710" y="398" width="90" height="74" as="geometry" />
        </mxCell>
        <mxCell id="Pq2s1rolhXNcvBjcGybK-18" value="" style="endArrow=none;html=1;rounded=0;exitX=1;exitY=0.5;exitDx=0;exitDy=0;exitPerimeter=0;entryX=0;entryY=0.5;entryDx=0;entryDy=0;entryPerimeter=0;" parent="1" source="Pq2s1rolhXNcvBjcGybK-5" target="Pq2s1rolhXNcvBjcGybK-3" edge="1">
          <mxGeometry width="50" height="50" relative="1" as="geometry">
            <mxPoint x="190" y="570" as="sourcePoint" />
            <mxPoint x="240" y="520" as="targetPoint" />
          </mxGeometry>
        </mxCell>
        <mxCell id="Pq2s1rolhXNcvBjcGybK-19" value="" style="endArrow=none;html=1;rounded=0;exitX=0.98;exitY=0.5;exitDx=0;exitDy=0;exitPerimeter=0;entryX=0.15;entryY=0.5;entryDx=0;entryDy=0;entryPerimeter=0;" parent="1" source="Pq2s1rolhXNcvBjcGybK-2" target="Pq2s1rolhXNcvBjcGybK-16" edge="1">
          <mxGeometry width="50" height="50" relative="1" as="geometry">
            <mxPoint x="610" y="440" as="sourcePoint" />
            <mxPoint x="660" y="390" as="targetPoint" />
          </mxGeometry>
        </mxCell>
        <mxCell id="Pq2s1rolhXNcvBjcGybK-20" value="&lt;font style=&quot;font-size: 15px;&quot;&gt;PC A&lt;/font&gt;" style="text;html=1;strokeColor=none;fillColor=none;align=center;verticalAlign=middle;whiteSpace=wrap;rounded=0;" parent="1" vertex="1">
          <mxGeometry x="20" y="470" width="60" height="30" as="geometry" />
        </mxCell>
        <mxCell id="Pq2s1rolhXNcvBjcGybK-21" value="&lt;font style=&quot;font-size: 15px;&quot;&gt;Switch 1&lt;/font&gt;" style="text;html=1;strokeColor=none;fillColor=none;align=center;verticalAlign=middle;whiteSpace=wrap;rounded=0;" parent="1" vertex="1">
          <mxGeometry x="190" y="460" width="60" height="30" as="geometry" />
        </mxCell>
        <mxCell id="Pq2s1rolhXNcvBjcGybK-22" value="&lt;font style=&quot;font-size: 15px;&quot;&gt;Switch 2&lt;/font&gt;" style="text;html=1;strokeColor=none;fillColor=none;align=center;verticalAlign=middle;whiteSpace=wrap;rounded=0;" parent="1" vertex="1">
          <mxGeometry x="370" y="250" width="60" height="30" as="geometry" />
        </mxCell>
        <mxCell id="Pq2s1rolhXNcvBjcGybK-23" value="&lt;font style=&quot;font-size: 15px;&quot;&gt;Switch 3&lt;/font&gt;" style="text;html=1;strokeColor=none;fillColor=none;align=center;verticalAlign=middle;whiteSpace=wrap;rounded=0;" parent="1" vertex="1">
          <mxGeometry x="550" y="460" width="60" height="30" as="geometry" />
        </mxCell>
        <mxCell id="Pq2s1rolhXNcvBjcGybK-24" value="&lt;font style=&quot;font-size: 15px;&quot;&gt;PC B&lt;/font&gt;" style="text;html=1;strokeColor=none;fillColor=none;align=center;verticalAlign=middle;whiteSpace=wrap;rounded=0;" parent="1" vertex="1">
          <mxGeometry x="720" y="472" width="60" height="30" as="geometry" />
        </mxCell>
        <mxCell id="TJ8tz61ypjwQuF67YSzk-4" value="" style="group" parent="1" vertex="1" connectable="0">
          <mxGeometry x="364" y="440" width="100" height="50" as="geometry" />
        </mxCell>
        <mxCell id="Cs98_yRKcukp_XkSm2hE-1" value="" style="shape=message;html=1;whiteSpace=wrap;html=1;outlineConnect=0;fontSize=15;rotation=0;fillColor=#f8cecc;strokeColor=#b85450;" parent="TJ8tz61ypjwQuF67YSzk-4" vertex="1">
          <mxGeometry x="50" y="10" width="50" height="30" as="geometry" />
        </mxCell>
        <mxCell id="TJ8tz61ypjwQuF67YSzk-3" value="" style="shape=image;html=1;verticalAlign=top;verticalLabelPosition=bottom;labelBackgroundColor=#ffffff;imageAspect=0;aspect=fixed;image=https://cdn3.iconfinder.com/data/icons/weather-free-2/32/Weather_Free_Outline_weather-wind-breeze-128.png;fontSize=15;rotation=-180;" parent="TJ8tz61ypjwQuF67YSzk-4" vertex="1">
          <mxGeometry width="50" height="50" as="geometry" />
        </mxCell>
      </root>
    </mxGraphModel>
  </diagram>
</mxfile>
